<svg viewBox="0 0 40 34" fill="currentColor" xmlns="http://www.w3.org/2000/svg">
  <path
    d="M6.31115 33.7011C5.85423 33.6104 5.37925 33.3732 4.99344 33.043C4.33501 32.4794 4.35945 32.5666 2.09652 22.7085C-0.225304 12.5939 -0.19188 12.7843 0.205818 11.9359C0.484969 11.3404 0.878658 10.9251 1.46575 10.6067L1.95643 10.3406L6.2098 10.3015L10.4632 10.2623L12.5624 5.44826C13.717 2.80052 14.7225 0.550862 14.797 0.449026C14.9952 0.177852 15.5665 -0.0541258 15.8742 0.0116272C16.4691 0.138794 16.8683 0.605263 16.8683 1.17335C16.8683 1.35618 16.2424 2.87824 14.9505 5.83647C13.8957 8.25191 13.0327 10.2447 13.0327 10.2648C13.0327 10.285 16.1678 10.3015 19.9994 10.3015C23.8311 10.3015 26.9662 10.2848 26.9662 10.2645C26.9662 10.2441 26.1032 8.25222 25.0484 5.83806C23.7274 2.81476 23.1306 1.36216 23.1306 1.17068C23.1306 0.592495 23.5194 0.138986 24.1247 0.0110324C24.4325 -0.0540111 25.0041 0.17841 25.2019 0.449026C25.2764 0.550862 26.2819 2.80052 27.4365 5.44826L29.5357 10.2623L33.7891 10.3015L38.0425 10.3406L38.5331 10.6067C39.1189 10.9243 39.5171 11.3435 39.7814 11.9209C40.1819 12.7956 40.2656 12.3154 37.934 22.5128C36.7502 27.6902 35.7351 31.9617 35.6367 32.1801C35.3916 32.7242 34.7514 33.3364 34.191 33.5626L33.7372 33.7457L20.1951 33.7573C12.747 33.7637 6.49922 33.7385 6.31115 33.7011V33.7011ZM33.4188 31.2858C33.5126 31.1821 34.2031 28.3051 35.6294 22.0753C37.3232 14.6777 37.6884 12.9821 37.6204 12.8327L37.537 12.6498H34.0563H30.5756L30.767 13.0826C30.997 13.6028 31.0091 13.9662 30.8092 14.3555C30.5371 14.8856 29.9213 15.1018 29.3771 14.8583C28.9211 14.6543 28.8427 14.547 28.4066 13.5304L28.0288 12.6498H20.0004H11.972L11.6273 13.4522C11.4376 13.8935 11.2128 14.3558 11.1277 14.4796C10.9194 14.7825 10.3624 15.0252 10.0347 14.9559C9.1456 14.768 8.82128 14.0112 9.23195 13.0826L9.42334 12.6498H5.94261H2.46187L2.37854 12.8327C2.3105 12.9821 2.67575 14.6777 4.36946 22.0753C5.79578 28.3051 6.48632 31.1821 6.58011 31.2858C6.71371 31.4334 6.9877 31.4365 19.9994 31.4365C33.0112 31.4365 33.2852 31.4334 33.4188 31.2858ZM12.6115 28.6182C12.4875 28.5798 12.298 28.4672 12.1905 28.3681C11.7769 27.987 11.7803 28.0305 11.7803 23.1599C11.7803 18.9061 11.789 18.6195 11.9252 18.3654C12.1584 17.9306 12.4271 17.777 12.9545 17.777C13.482 17.777 13.75 17.9303 13.985 18.3666C14.1237 18.6242 14.1301 18.874 14.1103 23.2703C14.0899 27.8102 14.0863 27.9069 13.9281 28.1187C13.5874 28.5749 13.0856 28.7653 12.6115 28.6182ZM19.6565 28.6182C19.5325 28.5798 19.343 28.4672 19.2355 28.3681C18.8219 27.987 18.8253 28.0305 18.8253 23.1599C18.8253 18.9061 18.8339 18.6195 18.9702 18.3654C19.2034 17.9306 19.4721 17.777 19.9994 17.777C20.527 17.777 20.795 17.9303 21.03 18.3666C21.1687 18.6242 21.1751 18.874 21.1553 23.2703C21.1349 27.8102 21.1313 27.9069 20.9731 28.1187C20.6324 28.5749 20.1306 28.7653 19.6565 28.6182V28.6182ZM26.7015 28.6182C26.5775 28.5798 26.388 28.4672 26.2805 28.3681C25.8669 27.987 25.8703 28.0305 25.8703 23.1599C25.8703 18.9061 25.879 18.6195 26.0152 18.3654C26.2484 17.9306 26.5171 17.777 27.0445 17.777C27.572 17.777 27.84 17.9303 28.075 18.3666C28.2137 18.6242 28.2201 18.874 28.2003 23.2703C28.1799 27.8102 28.1763 27.9069 28.0181 28.1187C27.6774 28.5749 27.1756 28.7653 26.7015 28.6182V28.6182Z" />
</svg>