<svg width="18" height="18" viewBox="0 0 18 18" fill="currentColor" xmlns="http://www.w3.org/2000/svg">
<path d="M9 0C11.3869 0 13.6761 0.948211 15.364 2.63604C17.0518 4.32387 18 6.61305 18 9C18 11.3869 17.0518 13.6761 15.364 15.364C13.6761 17.0518 11.3869 18 9 18C6.61305 18 4.32387 17.0518 2.63604 15.364C0.948211 13.6761 0 11.3869 0 9C0 6.61305 0.948211 4.32387 2.63604 2.63604C4.32387 0.948211 6.61305 0 9 0ZM7.87886 10.7756L5.87957 8.775C5.8079 8.70333 5.72281 8.64647 5.62916 8.60768C5.53552 8.56889 5.43515 8.54893 5.33379 8.54893C5.23242 8.54893 5.13205 8.56889 5.03841 8.60768C4.94476 8.64647 4.85967 8.70333 4.788 8.775C4.64325 8.91975 4.56193 9.11608 4.56193 9.32079C4.56193 9.5255 4.64325 9.72182 4.788 9.86657L7.33371 12.4123C7.40519 12.4843 7.49021 12.5415 7.58388 12.5805C7.67756 12.6195 7.77803 12.6396 7.8795 12.6396C7.98097 12.6396 8.08144 12.6195 8.17512 12.5805C8.26879 12.5415 8.35381 12.4843 8.42529 12.4123L13.6967 7.13957C13.7693 7.06819 13.8271 6.98314 13.8667 6.88933C13.9063 6.79551 13.927 6.69478 13.9274 6.59295C13.9279 6.49111 13.9082 6.3902 13.8695 6.29601C13.8308 6.20183 13.7738 6.11625 13.7018 6.0442C13.6298 5.97215 13.5443 5.91506 13.4502 5.87623C13.3561 5.83739 13.2552 5.81758 13.1533 5.81793C13.0515 5.81829 12.9507 5.8388 12.8569 5.87829C12.763 5.91777 12.6779 5.97545 12.6064 6.048L7.87886 10.7756Z" />
</svg>
